<svg width="39" height="40" viewBox="0 0 39 40" fill="none" xmlns="http://www.w3.org/2000/svg">
<path d="M24.375 28.125V29.75C24.375 32.4424 22.1924 34.625 19.5 34.625C16.8076 34.625 14.625 32.4424 14.625 29.75V28.125M24.375 28.125H14.625M24.375 28.125H30.2096C30.8312 28.125 31.1435 28.125 31.3952 28.0401C31.8759 27.8779 32.2521 27.5004 32.4143 27.0196C32.4995 26.7669 32.4995 26.4537 32.4995 25.8271C32.4995 25.553 32.4992 25.4159 32.4778 25.2852C32.4372 25.0382 32.3414 24.804 32.1954 24.6007C32.1183 24.4933 32.0202 24.3952 31.8269 24.202L31.194 23.569C30.9898 23.3647 30.875 23.0877 30.875 22.7989V16.75C30.875 10.4678 25.7822 5.37498 19.5 5.375C13.2178 5.37502 8.125 10.4678 8.125 16.75V22.799C8.125 23.0878 8.01002 23.3647 7.80579 23.569L7.17285 24.2019C6.97898 24.3958 6.88194 24.4932 6.80469 24.6008C6.65869 24.8041 6.56199 25.0382 6.52145 25.2852C6.5 25.4159 6.5 25.553 6.5 25.8272C6.5 26.4537 6.5 26.7669 6.58523 27.0196C6.74741 27.5004 7.1253 27.8779 7.60608 28.0401C7.85778 28.125 8.1689 28.125 8.79053 28.125H14.625" stroke="#8C8B87" stroke-width="3" stroke-linecap="round" stroke-linejoin="round"/>
</svg>
