<svg width="32" height="29" viewBox="0 0 32 29" fill="none" xmlns="http://www.w3.org/2000/svg">
<path d="M14.2227 1H17.7773C25.0798 1 31 6.92022 31 14.2227C30.9998 21.5249 25.0796 27.4443 17.7773 27.4443H14.2227C6.92037 27.4443 1.00023 21.5249 1 14.2227C1 6.92022 6.92022 1 14.2227 1Z" stroke="white" stroke-width="2"/>
<path d="M12.5 9.72217C13.0523 9.72217 13.5 10.1699 13.5 10.7222V17.7222C13.5 18.2745 13.0523 18.7222 12.5 18.7222C11.9477 18.7222 11.5 18.2745 11.5 17.7222V10.7222C11.5 10.1699 11.9477 9.72217 12.5 9.72217Z" fill="white" stroke="white"/>
<path d="M19.5 9.72217C20.0523 9.72217 20.5 10.1699 20.5 10.7222V17.7222C20.5 18.2745 20.0523 18.7222 19.5 18.7222C18.9477 18.7222 18.5 18.2745 18.5 17.7222V10.7222C18.5 10.1699 18.9477 9.72217 19.5 9.72217Z" fill="white" stroke="white"/>
</svg>
