<svg width="39" height="40" viewBox="0 0 39 40" fill="none" xmlns="http://www.w3.org/2000/svg">
<path d="M34.125 32.9999C34.125 30.1697 31.4119 27.7621 27.625 26.8698M24.375 33C24.375 29.4101 20.0098 26.5 14.625 26.5C9.24022 26.5 4.875 29.4101 4.875 33M24.375 21.625C27.9649 21.625 30.875 18.7149 30.875 15.125C30.875 11.5351 27.9649 8.625 24.375 8.625M14.625 21.625C11.0351 21.625 8.125 18.7149 8.125 15.125C8.125 11.5351 11.0351 8.625 14.625 8.625C18.2149 8.625 21.125 11.5351 21.125 15.125C21.125 18.7149 18.2149 21.625 14.625 21.625Z" stroke="#8C8B87" stroke-width="3" stroke-linecap="round" stroke-linejoin="round"/>
</svg>
